<svg width="60" height="60" viewBox="0 0 60 60" fill="none" xmlns="http://www.w3.org/2000/svg">
<g filter="url(#filter0_d)">
<circle cx="30" cy="26" r="26" fill="#FF5F5F"/>
</g>
<g filter="url(#filter1_d)">
<path d="M25.6094 26.8555C27.3438 27.5352 28.2109 28.8242 28.2109 30.7227V31.2324C28.2109 33.9629 28.8262 36.1367 30.0566 37.7539C30.4316 38.2461 30.7891 38.668 31.1289 39.0195C31.6445 39.5586 31.9023 40.0742 31.9023 40.5664C31.9023 41.0352 31.7734 41.4043 31.5156 41.6738C31.0938 42.1191 30.6777 42.3418 30.2676 42.3418C29.8574 42.3418 29.4648 42.2539 29.0898 42.0781C28.7266 41.9023 28.2402 41.5391 27.6309 40.9883C27.0332 40.4375 26.4648 39.6934 25.9258 38.7559C24.6602 36.5176 24.0273 33.7754 24.0273 30.5293C24.0273 29.9551 23.8809 29.5156 23.5879 29.2109C23.0957 28.6953 22.5566 28.4375 21.9707 28.4375H19.8965V36.2773C19.8965 37.168 19.4805 37.8008 18.6484 38.1758C18.3906 38.2812 18.1152 38.334 17.8223 38.334C17.541 38.334 17.2715 38.2754 17.0137 38.1582C16.7559 38.0527 16.5332 37.9062 16.3457 37.7188C15.9355 37.332 15.7305 36.8516 15.7305 36.2773V21.1953C15.7305 20.1172 16.1289 19.1973 16.9258 18.4355L17.2422 18.1191C17.3359 18.0137 17.3828 17.9082 17.3828 17.8027C17.3828 17.6973 17.3418 17.5859 17.2598 17.4688C17.1895 17.3398 17.043 17.2754 16.8203 17.2754H14.834C14.3184 17.2754 13.9199 17.4336 13.6387 17.75C13.1699 18.2773 12.9355 18.8164 12.9355 19.3672V20.3691C12.9355 21.2832 12.5078 21.916 11.6523 22.2676C11.3945 22.373 11.1191 22.4258 10.8262 22.4258C10.5449 22.4258 10.2754 22.373 10.0176 22.2676C9.77148 22.1621 9.55469 22.0156 9.36719 21.8281C8.96875 21.4297 8.76953 20.9434 8.76953 20.3691V19.3145C8.76953 17.8848 9.2793 16.6602 10.2988 15.6406C11.3184 14.6211 12.543 14.1113 13.9727 14.1113H23.0957C24.502 14.1113 25.7031 14.6211 26.6992 15.6406C27.6836 16.6484 28.1758 17.873 28.1758 19.3145L28.1934 22.4258C28.2168 24.4648 27.3555 25.9414 25.6094 26.8555ZM19.8965 25.2734H21.9531C22.5273 25.2734 22.9609 25.1211 23.2539 24.8164C23.7695 24.3125 24.0273 23.7617 24.0273 23.1641V19.3672C24.0273 18.8047 23.8809 18.3711 23.5879 18.0664C23.0957 17.5391 22.5449 17.2812 21.9355 17.293C21.3379 17.293 20.8457 17.4922 20.459 17.8906C20.084 18.2891 19.8965 18.7754 19.8965 19.3496V25.2734ZM41.7988 20.668C41.9863 20.4336 42.1562 20.1934 42.3086 19.9473C42.4609 19.6895 42.5371 19.3965 42.5371 19.0684C42.5371 18.7402 42.4785 18.4531 42.3613 18.207C42.2441 17.9492 42.0801 17.7266 41.8691 17.5391C41.4121 17.1289 40.832 16.9238 40.1289 16.9238C39.4258 16.9238 38.8691 17.1289 38.459 17.5391C38.0605 17.9375 37.8613 18.4297 37.8613 19.0156V33.2891C37.8613 33.8867 38.0547 34.3496 38.4414 34.6777C38.8398 34.9941 39.332 35.1523 39.918 35.1523C40.5156 35.1523 41.0137 34.9941 41.4121 34.6777C41.8105 34.3496 42.0098 33.8867 42.0098 33.2891V32.1465C42.0098 31.5605 42.1562 31.1211 42.4492 30.8281C42.9531 30.3242 43.4219 30.0723 43.8555 30.0723C44.2891 30.0723 44.6348 30.125 44.8926 30.2305C45.1504 30.3359 45.373 30.4824 45.5605 30.6699C45.9707 31.0801 46.1758 31.5723 46.1758 32.1465V33.1836C46.1758 35.6328 44.9805 37.2266 42.5898 37.9648C41.8164 38.2109 40.9316 38.334 39.9355 38.334C38.9512 38.334 38.0723 38.2168 37.2988 37.9824C36.5254 37.7363 35.875 37.3906 35.3477 36.9453C34.2461 36.0078 33.6953 34.7363 33.6953 33.1309V18.9277C33.6953 17.3457 34.2344 16.0977 35.3125 15.1836C36.4375 14.2344 37.9785 13.7598 39.9355 13.7598C41.9512 13.7598 43.5273 14.2344 44.6641 15.1836C45.7891 16.1094 46.3516 17.3633 46.3516 18.9453C46.3516 21.418 45.7188 23.0879 44.4531 23.9551C44.0664 24.2246 43.6738 24.3594 43.2754 24.3594C42.8887 24.3594 42.5664 24.3066 42.3086 24.2012C42.0625 24.0957 41.8457 23.9492 41.6582 23.7617C41.2598 23.3867 41.0605 22.959 41.0605 22.4785C41.0605 21.998 41.1367 21.6348 41.2891 21.3887C41.4414 21.1309 41.6113 20.8906 41.7988 20.668Z" fill="white"/>
</g>
<defs>
<filter id="filter0_d" x="0" y="0" width="60" height="60" filterUnits="userSpaceOnUse" color-interpolation-filters="sRGB">
<feFlood flood-opacity="0" result="BackgroundImageFix"/>
<feColorMatrix in="SourceAlpha" type="matrix" values="0 0 0 0 0 0 0 0 0 0 0 0 0 0 0 0 0 0 127 0"/>
<feOffset dy="4"/>
<feGaussianBlur stdDeviation="2"/>
<feColorMatrix type="matrix" values="0 0 0 0 0 0 0 0 0 0 0 0 0 0 0 0 0 0 0.25 0"/>
<feBlend mode="normal" in2="BackgroundImageFix" result="effect1_dropShadow"/>
<feBlend mode="normal" in="SourceGraphic" in2="effect1_dropShadow" result="shape"/>
</filter>
<filter id="filter1_d" x="6.76953" y="12.7598" width="41.582" height="32.582" filterUnits="userSpaceOnUse" color-interpolation-filters="sRGB">
<feFlood flood-opacity="0" result="BackgroundImageFix"/>
<feColorMatrix in="SourceAlpha" type="matrix" values="0 0 0 0 0 0 0 0 0 0 0 0 0 0 0 0 0 0 127 0"/>
<feOffset dy="1"/>
<feGaussianBlur stdDeviation="1"/>
<feColorMatrix type="matrix" values="0 0 0 0 0 0 0 0 0 0 0 0 0 0 0 0 0 0 0.25 0"/>
<feBlend mode="normal" in2="BackgroundImageFix" result="effect1_dropShadow"/>
<feBlend mode="normal" in="SourceGraphic" in2="effect1_dropShadow" result="shape"/>
</filter>
</defs>
</svg>
